<?xml version="1.0" encoding="utf-8"?>
<!DOCTYPE svg PUBLIC "-//W3C//DTD SVG 1.0//EN" "http://www.w3.org/TR/2001/REC-SVG-20010904/DTD/svg10.dtd">
<svg version="1.0" xmlns="http://www.w3.org/2000/svg" width="600" height="600" viewBox="0 0 2661.04 2661.04">
<path d="M411.46,1400.81L405.17,1398.89C369.67,1394.49,366.86,1430.82,385.47,1441.04L480.55,1493.19C499.15,1503.43,523.34,1496.1,533.59,1477.53L586.58,1382.98C597.73,1366.57,577,1337.96,549.92,1358.35C549.92,1358.33,490.42,1424.78,411.46,1400.81Z
M654.17,1423.16L656.09,1416.87C660.49,1381.4,624.12,1378.61,613.88,1397.19L561.67,1492.16C551.4,1510.73,558.75,1534.89,577.35,1545.12L672.02,1598.05C688.44,1609.18,717.1,1588.47,696.67,1561.44C696.67,1561.44,630.16,1502.02,654.17,1423.16Z
M629.17,1670.24L635.46,1672.16C670.96,1676.55,673.78,1640.23,655.16,1630L560.09,1577.86C541.48,1567.6,517.29,1574.94,507.05,1593.51L454.06,1688.06C442.92,1704.47,463.65,1733.08,490.72,1712.69C490.71,1712.7,550.21,1646.26,629.17,1670.24Z
M384.93,1643.42L383.01,1649.71C378.6,1685.16,414.98,1687.96,425.21,1669.38L477.42,1574.43C487.68,1555.85,480.34,1531.68,461.74,1521.45L367.07,1468.53C350.66,1457.4,322.01,1478.11,342.42,1505.13C342.41,1505.13,408.94,1564.56,384.93,1643.42Z
M788.51,582.18L786.96,575.8C772.65,543.04,739.92,559.14,740.6,580.36L744.14,688.63C744.79,709.85,763.44,726.9,784.67,726.23L893.13,723.57C912.94,724.79,927.03,692.39,895.66,679.52C895.66,679.51,808.1,662.25,788.51,582.18Z
M892.95,802.12L899.34,800.57C932.14,786.29,916.01,753.59,894.77,754.28L786.35,757.81C765.11,758.46,748.05,777.09,748.72,798.29L751.37,906.61C750.15,926.4,782.6,940.46,795.48,909.14C795.49,909.14,812.78,821.69,892.95,802.12Z
M667.36,906.58L668.91,912.97C683.22,945.72,715.95,929.62,715.26,908.41L711.72,800.13C711.07,778.92,692.42,761.87,671.19,762.53L562.75,765.2C542.94,763.98,528.86,796.38,560.22,809.24C560.21,809.24,647.76,826.5,667.36,906.58Z
M565.98,683.04L559.59,684.58C526.8,698.87,542.92,731.56,564.16,730.88L672.57,727.34C693.81,726.69,710.88,708.07,710.21,686.86L707.55,578.54C708.77,558.75,676.32,544.69,663.45,576.01C663.44,576.02,646.15,663.47,565.98,683.04Z
M496.78,943.88L492.18,939.19C463.09,918.37,443.23,948.95,454.69,966.82L513.25,1058.01C524.68,1075.9,549.45,1081,567.34,1069.57L659.13,1011.82C676.77,1002.73,672.26,967.7,638.71,972.69C638.72,972.69,554.66,1002.64,496.78,943.88Z
M699.26,1079.38L703.96,1074.78C724.8,1045.74,694.18,1025.9,676.29,1037.35L584.99,1095.84C567.07,1107.27,561.97,1131.98,573.41,1149.85L631.23,1241.53C640.33,1259.15,675.41,1254.64,670.41,1221.15C670.42,1221.15,640.43,1137.2,699.26,1079.38Z
M559.05,1284.48L563.65,1289.17C592.73,1309.99,612.59,1279.42,601.13,1261.55L542.58,1170.36C531.14,1152.47,506.39,1147.37,488.5,1158.8L396.7,1216.55C379.05,1225.64,383.58,1260.66,417.11,1255.68C417.11,1255.67,501.18,1225.73,559.05,1284.48Z
M357.35,1144.33L352.65,1148.92C331.82,1177.97,362.42,1197.79,380.31,1186.36L471.62,1127.87C489.53,1116.45,494.64,1091.72,483.19,1073.86L425.37,982.18C416.27,964.57,381.2,969.08,386.19,1002.57C386.19,1002.56,416.19,1086.51,357.35,1144.33Z
M1229.6,430.43L1231.51,424.15C1235.86,388.68,1199.46,385.94,1189.26,404.55L1137.23,499.61C1127,518.22,1134.4,542.36,1153.02,552.55L1247.8,605.28C1264.25,616.37,1292.85,595.61,1272.38,568.62C1272.39,568.64,1205.76,509.35,1229.6,430.43Z
M1207.71,672.88L1214.01,674.79C1249.52,679.12,1252.26,642.78,1233.63,632.6L1138.44,580.64C1119.82,570.43,1095.64,577.81,1085.43,596.41L1032.63,691.05C1021.53,707.48,1042.31,736.05,1069.32,715.61C1069.32,715.62,1128.69,649.06,1207.71,672.88Z
M960.26,648.41L958.36,654.68C954.02,690.16,990.4,692.89,1000.61,674.27L1052.63,579.21C1062.85,560.62,1055.47,536.47,1036.84,526.28L942.06,473.54C925.62,462.45,897.01,483.22,917.48,510.2C917.48,510.21,984.11,569.5,960.26,648.41Z
M986.63,404.42L980.34,402.51C944.82,398.17,942.09,434.52,960.72,444.71L1055.91,496.65C1074.53,506.87,1098.71,499.49,1108.92,480.88L1161.72,386.23C1172.82,369.81,1152.04,341.23,1125.01,361.67C1125,361.68,1065.63,428.24,986.63,404.42Z
M1487.49,370.63L1483.03,365.81C1454.54,344.16,1433.82,374.15,1444.76,392.34L1500.67,485.18C1511.58,503.39,1536.18,509.2,1554.4,498.3L1647.82,443.21C1665.72,434.64,1662.21,399.48,1628.55,403.51C1628.54,403.5,1543.65,431.03,1487.49,370.63Z
M1685.98,511.9L1690.8,507.43C1712.48,479.01,1682.45,458.29,1664.24,469.22L1571.28,525.05C1553.05,535.96,1547.23,560.53,1558.15,578.72L1613.3,672.02C1621.88,689.9,1657.08,686.4,1653.06,652.78C1653.06,652.78,1625.49,568,1685.98,511.9Z
M1539.91,712.88L1544.37,717.7C1572.85,739.34,1593.58,709.36,1582.62,691.18L1526.74,598.34C1515.82,580.13,1491.21,574.32,1473,585.22L1379.57,640.3C1361.68,648.88,1365.19,684.02,1398.85,680C1398.86,680,1483.75,652.49,1539.91,712.88Z
M1342.33,566.98L1337.51,571.44C1315.84,599.87,1345.86,620.58,1364.07,609.65L1457.03,553.82C1475.26,542.92,1481.08,518.35,1470.16,500.15L1414.99,406.85C1406.42,388.98,1371.22,392.48,1375.24,426.09C1375.25,426.1,1402.81,510.88,1342.33,566.98Z
M1950.17,575.51L1948.63,569.13C1934.32,536.38,1901.59,552.47,1902.27,573.69L1905.81,681.96C1906.47,703.18,1925.11,720.22,1946.34,719.56L2054.81,716.9C2074.6,718.11,2088.7,685.71,2057.34,672.85C2057.32,672.85,1969.76,655.58,1950.17,575.51Z
M2054.62,795.45L2061.02,793.9C2093.81,779.62,2077.67,746.92,2056.45,747.61L1948.03,751.15C1926.79,751.8,1909.73,770.43,1910.39,791.62L1913.06,899.94C1911.83,919.73,1944.27,933.79,1957.15,902.48C1957.15,902.48,1974.44,815.02,2054.62,795.45Z
M1829.02,899.91L1830.56,906.3C1844.88,939.05,1877.6,922.95,1876.93,901.74L1873.39,793.47C1872.74,772.26,1854.09,755.2,1832.86,755.88L1724.4,758.53C1704.6,757.31,1690.51,789.71,1721.87,802.58C1721.88,802.57,1809.43,819.84,1829.02,899.91Z
M1727.64,676.37L1721.25,677.92C1688.46,692.21,1704.58,724.9,1725.82,724.22L1834.23,720.68C1855.46,720.03,1872.54,701.41,1871.86,680.2L1869.21,571.88C1870.43,552.1,1837.98,538.03,1825.1,569.35C1825.1,569.35,1807.81,656.8,1727.64,676.37Z
M1970.21,1709.03L1968.66,1702.65C1954.35,1669.89,1921.63,1686,1922.3,1707.2L1925.84,1815.47C1926.49,1836.69,1945.14,1853.73,1966.37,1853.08L2074.82,1850.41C2094.63,1851.62,2108.72,1819.22,2077.36,1806.37C2077.35,1806.37,1989.79,1789.1,1970.21,1709.03Z
M2074.65,1928.98L2081.04,1927.42C2113.84,1913.14,2097.71,1880.46,2076.48,1881.13L1968.07,1884.67C1946.82,1885.31,1929.76,1903.94,1930.42,1925.15L1933.08,2033.46C1931.87,2053.25,1964.31,2067.31,1977.18,2035.99C1977.18,2035.99,1994.47,1948.55,2074.65,1928.98Z
M1849.04,2033.42L1850.6,2039.81C1864.91,2072.57,1897.64,2056.47,1896.96,2035.26L1893.42,1926.99C1892.77,1905.78,1874.11,1888.74,1852.89,1889.39L1744.42,1892.05C1724.62,1890.83,1710.53,1923.23,1741.89,1936.1C1741.9,1936.1,1829.46,1953.37,1849.04,2033.42Z
M1747.68,1809.89L1741.28,1811.44C1708.49,1825.73,1724.62,1858.41,1745.85,1857.74L1854.26,1854.2C1875.49,1853.55,1892.57,1834.92,1891.9,1813.71L1889.24,1705.4C1890.45,1685.61,1858.02,1671.55,1845.13,1702.87C1845.13,1702.88,1827.85,1790.32,1747.68,1809.89Z
M2076.82,1339.51L2072.22,1334.81C2043.15,1313.99,2023.28,1344.58,2034.73,1362.45L2093.29,1453.63C2104.73,1471.51,2129.48,1476.62,2147.37,1465.18L2239.18,1407.45C2256.82,1398.35,2252.3,1363.32,2218.77,1368.31C2218.77,1368.31,2134.7,1398.26,2076.82,1339.51Z
M2279.31,1475L2284.01,1470.4C2304.85,1441.36,2274.23,1421.52,2256.35,1432.97L2165.03,1491.46C2147.13,1502.89,2142.02,1527.6,2153.46,1545.46L2211.28,1637.14C2220.39,1654.77,2255.46,1650.26,2250.46,1616.77C2250.46,1616.77,2220.48,1532.82,2279.31,1475Z
M2139.09,1680.1L2143.7,1684.79C2172.79,1705.61,2192.66,1675.03,2181.18,1657.17L2122.63,1565.98C2111.19,1548.1,2086.43,1542.99,2068.54,1554.42L1976.75,1612.18C1959.11,1621.25,1963.63,1656.29,1997.16,1651.3C1997.16,1651.3,2081.21,1621.34,2139.09,1680.1Z
M1937.39,1539.95L1932.69,1544.55C1911.86,1573.58,1942.47,1593.43,1960.36,1581.99L2051.67,1523.5C2069.57,1512.07,2074.69,1487.34,2063.24,1469.48L2005.42,1377.8C1996.32,1360.18,1961.24,1364.69,1966.24,1398.17C1966.24,1398.17,1996.23,1482.13,1937.39,1539.95Z
M1084.29,1937.38L1079.69,1932.68C1050.61,1911.88,1030.75,1942.45,1042.2,1960.32L1100.76,2051.51C1112.2,2069.39,1136.96,2074.49,1154.85,2063.07L1246.64,2005.31C1264.28,1996.23,1259.77,1961.19,1226.24,1966.18C1226.24,1966.18,1142.17,1996.15,1084.29,1937.38Z
M1286.78,2072.88L1291.48,2068.29C1312.31,2039.25,1281.7,2019.4,1263.82,2030.85L1172.5,2089.34C1154.59,2100.78,1149.49,2125.48,1160.92,2143.36L1218.75,2235.04C1227.85,2252.66,1262.93,2248.14,1257.94,2214.65C1257.94,2214.64,1227.95,2130.7,1286.78,2072.88Z
M1146.57,2277.97L1151.17,2282.66C1180.27,2303.49,1200.12,2272.91,1188.65,2255.05L1130.1,2163.85C1118.67,2145.97,1093.9,2140.87,1076.02,2152.29L984.21,2210.05C966.57,2219.12,971.09,2254.15,1004.62,2249.16C1004.62,2249.17,1088.69,2219.22,1146.57,2277.97Z
M944.87,2137.83L940.17,2142.42C919.34,2171.47,949.95,2191.3,967.84,2179.86L1059.15,2121.38C1077.06,2109.94,1082.16,2085.23,1070.71,2067.35L1012.89,1975.67C1003.8,1958.05,968.72,1962.57,973.71,1996.06C973.7,1996.06,1003.69,2080.01,944.87,2137.83Z
M790.73,1735.71L789.18,1729.31C774.87,1696.57,742.14,1712.66,742.82,1733.87L746.36,1842.14C747.02,1863.36,765.67,1880.4,786.9,1879.74L895.35,1877.09C915.17,1878.3,929.24,1845.89,897.88,1833.03C897.88,1833.03,810.33,1815.78,790.73,1735.71Z
M895.18,1955.64L901.56,1954.1C934.36,1939.81,918.23,1907.12,897,1907.8L788.59,1911.34C767.35,1911.98,750.28,1930.61,750.94,1951.81L753.6,2060.12C752.39,2079.91,784.83,2093.98,797.7,2062.67C797.71,2062.67,815,1975.22,895.18,1955.64Z
M669.58,2060.09L671.13,2066.48C685.44,2099.24,718.17,2083.14,717.49,2061.93L713.95,1953.67C713.3,1932.45,694.65,1915.4,673.42,1916.07L564.96,1918.73C545.15,1917.5,531.07,1949.91,562.43,1962.77C562.44,1962.77,650,1980.03,669.58,2060.09Z
M568.2,1836.56L561.81,1838.11C529.01,1852.4,545.14,1885.08,566.37,1884.41L674.78,1880.87C696.02,1880.24,713.09,1861.61,712.42,1840.39L709.77,1732.09C710.98,1712.3,678.54,1698.24,665.66,1729.54C665.66,1729.54,648.38,1816.99,568.2,1836.56Z
M1672.47,1981.8L1674.37,1975.53C1678.71,1940.05,1642.33,1937.32,1632.11,1955.93L1580.1,2050.98C1569.88,2069.6,1577.27,2093.74,1595.89,2103.94L1690.66,2156.67C1707.12,2167.76,1735.73,2147,1715.25,2120C1715.25,2120,1648.61,2060.73,1672.47,1981.8Z
M1650.56,2224.24L1656.86,2226.15C1692.37,2230.49,1695.1,2194.14,1676.48,2183.96L1581.29,2132C1562.66,2121.79,1538.49,2129.17,1528.27,2147.78L1475.48,2242.42C1464.38,2258.85,1485.16,2287.41,1512.18,2266.99C1512.18,2267,1571.54,2200.43,1650.56,2224.24Z
M1403.12,2199.78L1401.22,2206.06C1396.88,2241.54,1433.26,2244.26,1443.46,2225.66L1495.48,2130.6C1505.71,2112,1498.31,2087.85,1479.69,2077.65L1384.92,2024.92C1368.47,2013.83,1339.86,2034.59,1360.34,2061.58C1360.33,2061.58,1426.96,2120.88,1403.12,2199.78Z
M1429.47,1955.8L1423.18,1953.9C1387.67,1949.55,1384.93,1985.9,1403.56,1996.09L1498.75,2048.04C1517.37,2058.26,1541.54,2050.88,1551.76,2032.27L1604.56,1937.61C1615.67,1921.18,1594.88,1892.62,1567.86,1913.06C1567.86,1913.05,1508.5,1979.61,1429.47,1955.8Z
M2237.72,986.08L2239.62,979.8C2243.96,944.33,2207.58,941.59,2197.36,960.21L2145.35,1055.27C2135.13,1073.87,2142.52,1098.02,2161.14,1108.21L2255.91,1160.95C2272.37,1172.05,2300.98,1151.28,2280.5,1124.29C2280.51,1124.29,2213.87,1065,2237.72,986.08Z
M2215.82,1228.53L2222.11,1230.43C2257.63,1234.76,2260.35,1198.41,2241.72,1188.24L2146.55,1136.28C2127.92,1126.07,2103.74,1133.45,2093.53,1152.05L2040.73,1246.7C2029.62,1263.13,2050.42,1291.7,2077.43,1271.26C2077.43,1271.27,2136.8,1204.71,2215.82,1228.53Z
M1968.38,1204.06L1966.46,1210.33C1962.12,1245.81,1998.52,1248.55,2008.72,1229.93L2060.73,1134.87C2070.96,1116.27,2063.57,1092.13,2044.95,1081.94L1950.17,1029.2C1933.72,1018.11,1905.12,1038.88,1925.58,1065.86C1925.58,1065.85,1992.22,1125.15,1968.38,1204.06Z
M1994.73,960.07L1988.44,958.16C1952.92,953.83,1950.2,990.17,1968.83,1000.35L2064.02,1052.31C2082.64,1062.52,2106.8,1055.14,2117.02,1036.53L2169.83,941.88C2180.93,925.46,2160.14,896.88,2133.12,917.33C2133.12,917.33,2073.74,983.89,1994.73,960.07Z
M1649.69,1685.68L1644.15,1685.28C1612.85,1687.54,1610.5,1713.17,1626.94,1717.48L1710.91,1739.44C1727.34,1743.77,1748.61,1735.06,1757.59,1720.63L1803.93,1647.13C1813.68,1634.09,1795.3,1617.34,1771.53,1635.52C1771.53,1635.52,1719.02,1673.5,1649.69,1685.68Z
M957.54,965.34L963.09,965.45C994.22,961.46,995.15,935.74,978.48,932.34L893.42,915.05C876.77,911.65,856.01,921.51,847.85,936.42L805.66,1012.37C796.65,1025.92,815.93,1041.64,838.65,1022.16C838.65,1022.17,888.98,981.35,957.54,965.34Z
M1786.48,1014.52L1790.1,1018.72C1813.83,1039.22,1833.64,1022.76,1825.05,1008.09L1781.24,933.25C1772.68,918.6,1751.47,909.72,1734.9,913.59L1650.1,932.84C1633.99,935.18,1635.11,960,1664.8,963.93C1664.8,963.93,1728.83,974.16,1786.48,1014.52Z
M895.85,1642.74L892.22,1638.55C868.5,1618.04,848.68,1634.52,857.26,1649.18L901.08,1724C909.64,1738.67,930.84,1747.54,947.41,1743.67L1032.2,1724.43C1048.33,1722.09,1047.2,1697.26,1017.52,1693.34C1017.53,1693.33,953.52,1683.11,895.85,1642.74Z
M1174.65,1883.26L1177.81,1887.82C1199.25,1910.72,1220.68,1896.43,1213.7,1880.94L1178.04,1801.9C1171.07,1786.43,1150.95,1775.37,1134.05,1777.46L1047.7,1787.66C1031.41,1788.28,1029.91,1813.09,1059.01,1820.12C1059.02,1820.11,1121.59,1837.05,1174.65,1883.26Z
M1616.55,1815.33L1622.04,1814.5C1652.03,1805.3,1648.58,1779.8,1631.58,1779.28L1544.83,1776.61C1527.85,1776.07,1509.05,1789.32,1503.54,1805.38L1474.84,1887.35C1468.25,1902.24,1489.92,1914.48,1509.01,1891.43C1509.01,1891.43,1551.69,1842.69,1616.55,1815.33Z
M1242.34,1515.45L1235.26,1513.18C1192.97,1504.69,1177.05,1528,1196.54,1537.64L1296.04,1586.78C1315.5,1596.42,1347.83,1595.44,1366.87,1584.91L1464.58,1531.47C1483.92,1522.5,1468.11,1500.51,1427.74,1509.55C1427.73,1509.57,1339.66,1527.5,1242.34,1515.45Z
M1412.08,1122.86L1419.09,1125.36C1461.07,1135.25,1477.75,1112.47,1458.59,1102.2L1360.78,1049.79C1341.67,1039.51,1309.31,1039.41,1289.94,1049.31L1190.52,1099.48C1170.89,1107.81,1185.95,1130.3,1226.61,1122.6C1226.61,1122.59,1315.22,1107.59,1412.08,1122.86Z
M1465.52,1732.2L1436.31,1728.87C1436.31,1728.87,1419.62,1725.53,1403.77,1750.54C1387.9,1775.55,1385.4,1784.72,1385.4,1784.72C1385.4,1784.72,1349.52,1733.87,1330.33,1730.54L1329.39,1730.33C1310.2,1733.65,1274.31,1784.5,1274.31,1784.5C1274.31,1784.5,1271.81,1775.34,1255.95,1750.33C1240.1,1725.32,1223.4,1728.67,1223.4,1728.67L1194.19,1731.99C1160.82,1728.67,1185.85,1751.16,1185.85,1751.16C1245.93,1786.16,1311.03,1902.86,1311.03,1902.86C1311.03,1902.86,1325.6,1944.18,1348.69,1903.07C1348.69,1903.07,1413.79,1786.38,1473.88,1751.38C1473.87,1751.38,1498.91,1728.87,1465.52,1732.2Z
M1330.33,1831.11C1323.72,1831.11,1318.37,1812.64,1318.37,1789.86C1318.37,1767.07,1323.72,1748.6,1330.33,1748.6C1336.93,1748.6,1342.29,1767.07,1342.29,1789.86C1342.29,1812.64,1336.93,1831.11,1330.33,1831.11Z
M130.58,1288.44C149.72,1288.44,165.23,1303.21,165.23,1321.43C165.23,1339.66,149.72,1354.41,130.58,1354.41H34.73C15.6,1354.41,0.08,1339.65,0.08,1321.43C0.08,1303.21,15.6,1288.44,34.73,1288.44Z
M131.15,1371.69C150.25,1370.43,166.71,1384.14,167.92,1402.32C169.12,1420.49,154.6,1436.26,135.51,1437.52L39.86,1443.84C20.77,1445.09,4.32,1431.39,3.12,1413.21C1.91,1395.04,16.42,1379.26,35.51,1378Z
M137.08,1453.54C156.06,1451.03,173.38,1463.64,175.78,1481.69C178.18,1499.76,164.74,1516.43,145.76,1518.95L50.75,1531.54C31.79,1534.05,14.47,1521.44,12.06,1503.39C9.67,1485.33,23.1,1468.65,42.07,1466.14Z
M148.25,1533.81C167.01,1530.06,185.13,1541.52,188.71,1559.38C192.29,1577.24,179.97,1594.76,161.21,1598.51L67.22,1617.29C48.46,1621.03,30.34,1609.6,26.77,1591.74C23.19,1573.88,35.5,1556.34,54.27,1552.59Z
M164.44,1612.34C182.92,1607.37,201.76,1617.61,206.49,1635.19C211.23,1652.79,200.08,1671.09,181.6,1676.04L89.04,1700.92C70.56,1705.88,51.74,1695.63,47.01,1678.05C42.27,1660.44,53.4,1642.17,71.88,1637.2Z
M185.53,1688.92C203.65,1682.76,223.1,1691.76,228.98,1709.01C234.84,1726.27,224.91,1745.23,206.78,1751.38L116.03,1782.19C97.91,1788.35,78.47,1779.36,72.6,1762.1C66.73,1744.85,76.64,1725.89,94.77,1719.73Z
M211.31,1763.39C229.01,1756.08,249,1763.81,255.97,1780.65C262.94,1797.48,254.26,1817.06,236.57,1824.35L148,1860.96C130.32,1868.27,110.34,1860.54,103.36,1843.7C96.39,1826.87,105.06,1807.28,122.74,1799.99Z
M241.64,1835.58C258.82,1827.15,279.28,1833.58,287.32,1849.93C295.36,1866.29,287.94,1886.38,270.76,1894.8L184.72,1937C167.55,1945.42,147.1,1939,139.06,1922.65C131.02,1906.3,138.42,1886.2,155.6,1877.79Z
M276.35,1905.29C292.95,1895.79,313.78,1900.88,322.85,1916.7C331.93,1932.51,325.8,1953.02,309.2,1962.53L226.04,2010.14C209.44,2019.64,188.64,2014.53,179.56,1998.72C170.49,1982.91,176.59,1962.4,193.18,1952.89Z
M315.24,1972.32C331.21,1961.78,352.32,1965.56,362.38,1980.76C372.44,1995.96,367.65,2016.82,351.68,2027.36L271.72,2080.17C255.76,2090.7,234.67,2086.93,224.61,2071.72C214.56,2056.53,219.33,2035.67,235.29,2025.13Z
M358.18,2036.53C373.44,2024.99,394.75,2027.44,405.75,2041.95C416.76,2056.49,413.3,2077.6,398.03,2089.15L321.59,2146.91C306.34,2158.44,285.04,2156,274.04,2141.48C263.03,2126.96,266.48,2105.83,281.74,2094.29Z
M404.96,2097.7C419.46,2085.23,440.87,2086.29,452.78,2100.09C464.69,2113.9,462.58,2135.21,448.09,2147.68L375.47,2210.17C360.98,2222.64,339.58,2221.57,327.67,2207.76C315.77,2193.97,317.86,2172.66,332.35,2160.19Z
M455.41,2155.65C469.09,2142.28,490.52,2142,503.29,2155.01C516.04,2168.04,515.3,2189.43,501.62,2202.79L433.13,2269.77C419.44,2283.14,398.02,2283.42,385.26,2270.4C372.5,2257.38,373.23,2236,386.91,2222.62Z
M509.37,2210.21C522.17,2196,543.54,2194.33,557.11,2206.53C570.67,2218.71,571.29,2240.1,558.5,2254.31L494.42,2325.51C481.64,2339.72,460.26,2341.37,446.71,2329.19C433.14,2317,432.51,2295.61,445.3,2281.41Z
M566.65,2261.19C578.51,2246.17,599.73,2243.17,614.05,2254.45C628.37,2265.75,630.36,2287.06,618.5,2302.06L559.11,2377.22C547.25,2392.21,526.03,2395.22,511.72,2383.94C497.4,2372.65,495.41,2351.34,507.26,2336.33Z
M627.08,2308.39C637.95,2292.65,658.94,2288.28,673.95,2298.62C688.96,2308.96,692.33,2330.1,681.46,2345.85L627.04,2424.66C616.18,2440.39,595.2,2444.76,580.18,2434.42C565.17,2424.08,561.79,2402.93,572.66,2387.19Z
M690.5,2351.66C700.32,2335.25,720.98,2329.54,736.64,2338.9C752.28,2348.24,757.02,2369.11,747.19,2385.53L698,2467.69C688.18,2484.1,667.53,2489.8,651.87,2480.45C636.22,2471.09,631.48,2450.23,641.3,2433.82Z
M756.72,2390.8C765.44,2373.79,785.68,2366.74,801.92,2375.04C818.16,2383.35,824.24,2403.88,815.52,2420.89L771.81,2506.1C763.08,2523.09,742.85,2530.14,726.61,2521.85C710.38,2513.53,704.29,2493.02,713.01,2476.01Z
M825.59,2425.63C833.17,2408.07,852.91,2399.7,869.65,2406.93C886.4,2414.15,893.82,2434.22,886.24,2451.77L848.26,2539.66C840.69,2557.19,820.96,2565.58,804.21,2558.35C787.46,2551.12,780.03,2531.06,787.61,2513.52Z
M896.91,2455.95C903.31,2437.95,922.44,2428.28,939.62,2434.37C956.82,2440.44,965.57,2460,959.17,2478.02L927.13,2568.23C920.73,2586.25,901.61,2595.92,884.42,2589.82C867.23,2583.74,858.47,2564.19,864.87,2546.18Z
M970.55,2481.61C975.72,2463.21,994.16,2452.3,1011.72,2457.23C1029.28,2462.13,1039.32,2481.07,1034.15,2499.47L1008.25,2591.63C1003.09,2610.03,984.66,2620.97,967.1,2616.02C949.53,2611.1,939.48,2592.2,944.64,2573.8Z
M1046.34,2502.42C1050.25,2483.71,1067.9,2471.56,1085.75,2475.27C1103.61,2478.99,1114.92,2497.18,1111,2515.9L1091.42,2609.63C1087.51,2628.32,1069.87,2640.46,1052,2636.76C1034.15,2633.02,1022.84,2614.85,1026.75,2596.14Z
M1124.11,2518.17C1126.73,2499.23,1143.51,2485.9,1161.58,2488.4C1179.65,2490.89,1192.17,2508.27,1189.55,2527.21L1176.41,2622.04C1173.79,2640.96,1157.02,2654.28,1138.94,2651.79C1120.88,2649.29,1108.35,2631.92,1110.97,2613Z
M1203.7,2528.68C1205.02,2509.59,1220.84,2495.16,1239.04,2496.4C1257.24,2497.65,1270.92,2514.14,1269.6,2533.2L1263.01,2628.72C1261.69,2647.77,1245.88,2662.23,1227.69,2660.96C1209.48,2659.71,1195.8,2643.25,1197.11,2624.18Z
M1374.35,130.33C1374.35,149.45,1359.56,164.95,1341.31,164.95C1323.07,164.95,1308.28,149.45,1308.28,130.33V34.6C1308.28,15.49,1323.07,0,1341.31,0C1359.55,0,1374.35,15.49,1374.35,34.6Z
M1290.98,130.9C1292.24,149.97,1278.51,166.41,1260.31,167.62C1242.1,168.82,1226.32,154.32,1225.06,135.25L1218.74,39.73C1217.48,20.66,1231.21,4.24,1249.41,3.03C1267.61,1.83,1283.39,16.32,1284.65,35.38Z
M1209.03,136.83C1211.54,155.78,1198.92,173.09,1180.84,175.49C1162.75,177.88,1146.06,164.46,1143.54,145.5L1130.94,50.6C1128.43,31.65,1141.05,14.36,1159.13,11.96C1177.21,9.57,1193.91,22.98,1196.43,41.93Z
M1128.65,147.98C1132.4,166.72,1120.94,184.82,1103.06,188.39C1085.16,191.97,1067.62,179.66,1063.86,160.92L1045.06,67.05C1041.31,48.31,1052.76,30.22,1070.66,26.65C1088.55,23.07,1106.09,35.37,1109.85,54.11Z
M1050.03,164.16C1055.01,182.61,1044.75,201.43,1027.13,206.16C1009.51,210.89,991.2,199.75,986.23,181.3L961.33,88.85C956.36,70.4,966.6,51.6,984.23,46.87C1001.85,42.15,1020.15,53.26,1025.13,71.72Z
M973.35,185.21C979.51,203.31,970.5,222.74,953.23,228.6C935.96,234.46,916.97,224.54,910.8,206.44L879.94,115.81C873.79,97.71,882.8,78.3,900.07,72.43C917.34,66.57,936.33,76.47,942.5,94.57Z
M898.77,210.96C906.09,228.63,898.35,248.6,881.5,255.56C864.64,262.52,845.05,253.85,837.73,236.18L801.09,147.72C793.77,130.06,801.51,110.1,818.37,103.14C835.22,96.18,854.82,104.84,862.13,122.5Z
M826.51,241.25C834.95,258.41,828.51,278.84,812.14,286.87C795.76,294.9,775.65,287.5,767.21,270.34L724.96,184.41C716.53,167.26,722.95,146.85,739.34,138.81C755.71,130.78,775.82,138.17,784.26,155.32Z
M756.71,275.91C766.23,292.49,761.12,313.29,745.29,322.36C729.46,331.41,708.92,325.31,699.4,308.73L651.73,225.67C642.21,209.09,647.33,188.31,663.16,179.24C678.99,170.18,699.53,176.27,709.05,192.86Z
M689.58,314.77C700.13,330.71,696.35,351.8,681.14,361.84C665.92,371.88,645.03,367.1,634.47,351.16L581.6,271.31C571.05,255.37,574.83,234.3,590.05,224.25C605.26,214.2,626.16,218.98,636.72,234.91Z
M625.3,357.64C636.85,372.88,634.41,394.16,619.87,405.15C605.32,416.15,584.17,412.69,572.62,397.45L514.78,321.11C503.23,305.88,505.67,284.61,520.21,273.61C534.76,262.62,555.91,266.06,567.46,281.3Z
M564.05,404.36C576.54,418.84,575.47,440.23,561.65,452.11C547.83,464,526.49,461.9,514,447.42L451.43,374.9C438.94,360.42,440.01,339.05,453.83,327.15C467.66,315.26,488.99,317.36,501.48,331.83Z
M506.03,454.75C519.42,468.41,519.71,489.82,506.67,502.56C493.64,515.31,472.21,514.56,458.83,500.9L391.77,432.5C378.38,418.84,378.1,397.45,391.13,384.7C404.17,371.96,425.59,372.69,438.97,386.35Z
M451.4,508.64C465.63,521.41,467.29,542.77,455.1,556.32C442.9,569.86,421.47,570.49,407.24,557.7L335.96,493.7C321.73,480.93,320.08,459.59,332.27,446.04C344.47,432.49,365.89,431.86,380.12,444.63Z
M400.36,565.84C415.38,577.69,418.4,598.88,407.09,613.18C395.79,627.48,374.45,629.47,359.42,617.62L284.18,558.31C269.17,546.47,266.15,525.28,277.45,510.98C288.75,496.68,310.09,494.69,325.12,506.52Z
M353.09,626.21C368.85,637.06,373.23,658.03,362.87,673.02C352.51,688.01,331.34,691.37,315.58,680.52L236.68,626.17C220.92,615.32,216.55,594.36,226.9,579.37C237.26,564.37,258.42,561.01,274.18,571.86Z
M309.77,689.54C326.2,699.35,331.92,719.99,322.56,735.62C313.2,751.25,292.3,755.98,275.87,746.16L193.61,697.03C177.19,687.23,171.47,666.6,180.82,650.97C190.18,635.34,211.08,630.6,227.5,640.41Z
M270.59,755.68C287.62,764.4,294.69,784.61,286.37,800.82C278.05,817.03,257.5,823.11,240.47,814.39L155.15,770.73C138.13,762.02,131.06,741.81,139.38,725.6C147.7,709.39,168.25,703.3,185.27,712.01Z
M235.71,824.45C253.28,832.02,261.66,851.73,254.44,868.45C247.21,885.18,227.11,892.59,209.54,885.02L121.54,847.08C103.97,839.51,95.59,819.81,102.81,803.09C110.05,786.37,130.14,778.94,147.71,786.52Z
M205.33,895.7C223.37,902.09,233.05,921.19,226.95,938.36C220.85,955.53,201.29,964.27,183.25,957.88L92.91,925.88C74.88,919.49,65.2,900.4,71.3,883.22C77.4,866.05,96.96,857.31,114.99,863.7Z
M179.65,969.24C198.07,974.41,209.02,992.82,204.08,1010.35C199.15,1027.9,180.22,1037.92,161.79,1032.76L69.5,1006.89C51.08,1001.73,40.15,983.33,45.08,965.79C50.01,948.25,68.93,938.21,87.36,943.37Z
M158.82,1044.93C177.56,1048.84,189.72,1066.46,186,1084.29C182.27,1102.13,164.05,1113.42,145.33,1109.51L51.5,1089.95C32.76,1086.05,20.61,1068.42,24.33,1050.59C28.06,1032.76,46.26,1021.46,65,1025.37Z
M143.05,1122.6C162.01,1125.22,175.35,1141.98,172.85,1160.02C170.35,1178.06,152.95,1190.57,133.99,1187.94L39.04,1174.82C20.09,1172.2,6.75,1155.45,9.25,1137.41C11.75,1119.36,29.14,1106.86,48.1,1109.47Z
M132.54,1202.09C151.63,1203.4,166.09,1219.21,164.83,1237.38C163.58,1255.55,147.09,1269.22,127.98,1267.9L32.36,1261.32C13.27,1260,-1.18,1244.21,0.07,1226.04C1.32,1207.87,17.81,1194.19,36.9,1195.5Z
M2530.54,1375.89C2511.41,1375.89,2495.87,1361.11,2495.87,1342.89C2495.87,1324.67,2511.41,1309.91,2530.54,1309.91H2626.4C2645.53,1309.91,2661.04,1324.68,2661.04,1342.89C2661.04,1361.11,2645.53,1375.89,2626.4,1375.89Z
M2529.98,1292.62C2510.88,1293.89,2494.41,1280.16,2493.21,1261.99C2492.01,1243.81,2506.52,1228.05,2525.61,1226.79L2621.26,1220.47C2640.35,1219.21,2656.8,1232.92,2658,1251.1C2659.2,1269.28,2644.7,1285.05,2625.62,1286.31Z
M2524.02,1210.78C2505.06,1213.28,2487.73,1200.68,2485.33,1182.63C2482.93,1164.56,2496.37,1147.88,2515.34,1145.37L2610.36,1132.78C2629.33,1130.28,2646.66,1142.88,2649.05,1160.94C2651.45,1179,2638.01,1195.68,2619.06,1198.19Z
M2512.88,1130.5C2494.1,1134.25,2476,1122.8,2472.41,1104.94C2468.83,1087.07,2481.14,1069.55,2499.92,1065.8L2593.91,1047.02C2612.66,1043.27,2630.78,1054.71,2634.35,1072.58C2637.92,1090.44,2625.63,1107.97,2606.87,1111.72Z
M2496.67,1051.99C2478.19,1056.96,2459.37,1046.72,2454.62,1029.12C2449.88,1011.53,2461.03,993.24,2479.51,988.28L2572.08,963.42C2590.56,958.45,2609.37,968.69,2614.11,986.29C2618.85,1003.88,2607.71,1022.17,2589.24,1027.13Z
M2475.61,975.4C2457.48,981.55,2438.02,972.55,2432.16,955.31C2426.28,938.05,2436.21,919.09,2454.33,912.93L2545.09,882.12C2563.2,875.97,2582.65,884.96,2588.52,902.21C2594.39,919.46,2584.47,938.43,2566.35,944.58Z
M2449.8,900.93C2432.12,908.24,2412.12,900.51,2405.14,883.68C2398.18,866.84,2406.86,847.27,2424.54,839.96L2513.11,803.36C2530.79,796.05,2550.77,803.78,2557.75,820.62C2564.72,837.46,2556.04,857.02,2538.37,864.34Z
M2419.48,828.74C2402.29,837.17,2381.84,830.75,2373.81,814.39C2365.76,798.03,2373.18,777.94,2390.36,769.52L2476.39,727.32C2493.57,718.9,2514.02,725.32,2522.05,741.68C2530.09,758.03,2522.68,778.13,2505.52,786.54Z
M2384.78,759.04C2368.17,768.54,2347.35,763.43,2338.28,747.63C2329.21,731.82,2335.33,711.31,2351.93,701.8L2435.09,654.19C2451.69,644.69,2472.49,649.8,2481.56,665.6C2490.63,681.41,2484.53,701.92,2467.94,711.43Z
M2345.88,691.99C2329.91,702.53,2308.8,698.76,2298.75,683.56C2288.69,668.36,2293.47,647.49,2309.44,636.95L2389.39,584.16C2405.36,573.61,2426.44,577.39,2436.51,592.59C2446.57,607.78,2441.79,628.65,2425.83,639.19Z
M2302.95,627.79C2287.69,639.32,2266.39,636.9,2255.37,622.37C2244.37,607.83,2247.83,586.71,2263.09,575.18L2339.53,517.42C2354.79,505.89,2376.07,508.31,2387.08,522.84C2398.09,537.37,2394.64,558.49,2379.39,570.02Z
M2256.17,566.62C2241.66,579.1,2220.25,578.03,2208.36,564.23C2196.45,550.42,2198.55,529.12,2213.05,516.65L2285.66,454.15C2300.15,441.68,2321.56,442.75,2333.47,456.56C2345.37,470.36,2343.28,491.67,2328.78,504.13Z
M2205.7,508.67C2192.04,522.04,2170.59,522.33,2157.84,509.31C2145.08,496.3,2145.81,474.9,2159.49,461.53L2227.99,394.56C2241.66,381.19,2263.1,380.9,2275.85,393.93C2288.61,406.94,2287.87,428.34,2274.2,441.71Z
M2151.75,454.11C2138.96,468.33,2117.59,469.98,2104.03,457.8C2090.47,445.62,2089.84,424.23,2102.63,410.01L2166.72,338.82C2179.5,324.61,2200.86,322.96,2214.43,335.14C2228,347.32,2228.63,368.71,2215.84,382.93Z
M2094.46,403.13C2082.6,418.14,2061.38,421.15,2047.07,409.86C2032.74,398.57,2030.75,377.25,2042.62,362.25L2102,287.1C2113.86,272.1,2135.08,269.09,2149.4,280.38C2163.72,291.67,2165.71,312.98,2153.85,327.98Z
M2034.03,355.93C2023.15,371.66,2002.17,376.03,1987.16,365.69C1972.15,355.34,1968.78,334.2,1979.65,318.47L2034.07,239.66C2044.93,223.92,2065.92,219.57,2080.93,229.9C2095.94,240.25,2099.32,261.38,2088.45,277.12Z
M1970.63,312.66C1960.81,329.07,1940.15,334.79,1924.5,325.44C1908.85,316.08,1904.1,295.21,1913.93,278.8L1963.12,196.64C1972.94,180.24,1993.59,174.53,2009.25,183.88C2024.9,193.23,2029.64,214.11,2019.82,230.51Z
M1904.39,273.53C1895.66,290.54,1875.43,297.6,1859.19,289.29C1842.96,280.99,1836.87,260.46,1845.6,243.45L1889.31,158.25C1898.03,141.24,1918.27,134.19,1934.51,142.49C1950.74,150.8,1956.83,171.32,1948.1,188.32Z
M1835.55,238.7C1827.96,256.25,1808.23,264.62,1791.48,257.4C1774.73,250.18,1767.31,230.11,1774.89,212.56L1812.88,124.66C1820.46,107.12,1840.18,98.75,1856.94,105.97C1873.68,113.19,1881.11,133.26,1873.53,150.81Z
M1764.21,208.35C1757.81,226.37,1738.68,236.04,1721.5,229.95C1704.31,223.86,1695.56,204.32,1701.95,186.3L1733.99,96.07C1740.4,78.06,1759.51,68.39,1776.7,74.49C1793.9,80.58,1802.66,100.12,1796.26,118.12Z
M1690.58,182.7C1685.4,201.11,1666.97,212.03,1649.41,207.11C1631.85,202.19,1621.81,183.28,1626.97,164.87L1652.87,72.7C1658.05,54.3,1676.47,43.37,1694.03,48.31C1711.59,53.23,1721.64,72.13,1716.47,90.53Z
M1614.79,161.9C1610.88,180.61,1593.23,192.76,1575.38,189.04C1557.52,185.31,1546.22,167.13,1550.14,148.41L1569.72,54.7C1573.63,35.99,1591.26,23.85,1609.12,27.57C1626.97,31.29,1638.29,49.47,1634.38,68.18Z
M1537.02,146.15C1534.39,165.09,1517.62,178.41,1499.54,175.92C1481.48,173.42,1468.96,156.04,1471.57,137.11L1484.72,42.28C1487.33,23.35,1504.1,10.03,1522.18,12.53C1540.24,15.03,1552.78,32.4,1550.14,51.32Z
M1457.42,135.65C1456.1,154.72,1440.27,169.16,1422.08,167.91C1403.88,166.65,1390.2,150.18,1391.51,131.11L1398.1,35.61C1399.42,16.54,1415.24,2.1,1433.44,3.36C1451.63,4.61,1465.32,21.08,1464.01,40.15Z
M1280.04,2527.26C1280.04,2508.13,1294.83,2492.63,1313.07,2492.63C1331.31,2492.63,1346.1,2508.13,1346.1,2527.26V2622.99C1346.1,2642.1,1331.31,2657.59,1313.07,2657.59C1294.83,2657.59,1280.04,2642.1,1280.04,2622.99Z
M1363.4,2526.68C1362.14,2507.61,1375.88,2491.17,1394.07,2489.95C1412.28,2488.76,1428.06,2503.26,1429.32,2522.33L1435.64,2617.86C1436.9,2636.93,1423.17,2653.36,1404.97,2654.55C1386.77,2655.77,1370.98,2641.27,1369.72,2622.21Z
M1445.35,2520.77C1442.84,2501.81,1455.47,2484.49,1473.54,2482.1C1491.63,2479.71,1508.33,2493.14,1510.84,2512.09L1523.44,2606.99C1525.97,2625.93,1513.34,2643.21,1495.25,2645.6C1477.17,2648.01,1460.47,2634.6,1457.96,2615.65Z
M1525.73,2509.6C1521.98,2490.86,1533.44,2472.77,1551.32,2469.18C1569.22,2465.62,1586.76,2477.91,1590.52,2496.66L1609.32,2590.54C1613.07,2609.27,1601.61,2627.36,1583.72,2630.94C1565.84,2634.51,1548.29,2622.23,1544.53,2603.49Z
M1604.35,2493.44C1599.38,2474.95,1609.62,2456.15,1627.25,2451.43C1644.87,2446.7,1663.18,2457.83,1668.15,2476.29L1693.04,2568.73C1698.02,2587.2,1687.77,2605.98,1670.15,2610.72C1652.54,2615.45,1634.22,2604.33,1629.25,2585.86Z
M1681.04,2472.38C1674.87,2454.29,1683.88,2434.83,1701.16,2429C1718.44,2423.12,1737.42,2433.05,1743.59,2451.14L1774.44,2541.78C1780.6,2559.87,1771.59,2579.28,1754.32,2585.16C1737.04,2591.01,1718.04,2581.11,1711.89,2563.01Z
M1755.61,2446.64C1748.3,2428.96,1756.03,2408.99,1772.88,2402.02C1789.74,2395.06,1809.34,2403.74,1816.66,2421.4L1853.3,2509.86C1860.62,2527.53,1852.89,2547.49,1836.02,2554.45C1819.16,2561.41,1799.57,2552.76,1792.25,2535.1Z
M1827.88,2416.33C1819.44,2399.17,1825.88,2378.74,1842.25,2370.71C1858.63,2362.67,1878.73,2370.08,1887.18,2387.23L1929.43,2473.16C1937.88,2490.32,1931.43,2510.72,1915.05,2518.77C1898.69,2526.81,1878.57,2519.4,1870.14,2502.26Z
M1897.68,2381.67C1888.16,2365.09,1893.28,2344.3,1909.11,2335.24C1924.92,2326.18,1945.48,2332.27,1955,2348.87L2002.67,2431.92C2012.18,2448.5,2007.06,2469.27,1991.23,2478.34C1975.41,2487.4,1954.87,2481.32,1945.35,2464.74Z
M1964.8,2342.83C1954.24,2326.88,1958.02,2305.81,1973.24,2295.76C1988.46,2285.71,2009.34,2290.49,2019.91,2306.42L2072.77,2386.29C2083.33,2402.23,2079.55,2423.29,2064.32,2433.34C2049.11,2443.39,2028.21,2438.6,2017.66,2422.67Z
M2029.08,2299.95C2017.55,2284.71,2019.97,2263.43,2034.51,2252.45C2049.06,2241.44,2070.21,2244.9,2081.76,2260.15L2139.6,2336.49C2151.15,2351.73,2148.72,2372.99,2134.16,2383.99C2119.62,2394.98,2098.47,2391.53,2086.92,2376.3Z
M2090.33,2253.24C2077.83,2238.74,2078.9,2217.36,2092.72,2205.46C2106.55,2193.58,2127.88,2195.68,2140.38,2210.16L2202.94,2282.68C2215.43,2297.16,2214.37,2318.54,2200.54,2330.42C2186.73,2342.32,2165.4,2340.23,2152.9,2325.75Z
M2148.36,2202.84C2134.97,2189.19,2134.69,2167.77,2147.72,2155.03C2160.76,2142.29,2182.16,2143.03,2195.56,2156.68L2262.62,2225.09C2276.01,2238.74,2276.3,2260.15,2263.25,2272.89C2250.22,2285.63,2228.8,2284.89,2215.42,2271.24Z
M2202.99,2148.95C2188.75,2136.16,2187.1,2114.82,2199.3,2101.26C2211.5,2087.72,2232.91,2087.09,2247.15,2099.88L2318.44,2163.87C2332.66,2176.64,2334.32,2197.98,2322.12,2211.53C2309.92,2225.07,2288.5,2225.72,2274.27,2212.94Z
M2254.02,2091.73C2238.99,2079.88,2235.98,2058.69,2247.28,2044.4C2258.58,2030.08,2279.93,2028.11,2294.96,2039.94L2370.19,2099.27C2385.21,2111.1,2388.22,2132.31,2376.91,2146.59C2365.61,2160.9,2344.28,2162.9,2329.25,2151.04Z
M2301.29,2031.38C2285.54,2020.52,2281.17,1999.55,2291.52,1984.57C2301.87,1969.56,2323.04,1966.2,2338.8,1977.06L2417.71,2031.42C2433.46,2042.28,2437.83,2063.23,2427.49,2078.21C2417.13,2093.22,2395.96,2096.59,2380.21,2085.73Z
M2344.61,1968.04C2328.19,1958.22,2322.45,1937.6,2331.82,1921.98C2341.19,1906.34,2362.08,1901.61,2378.52,1911.42L2460.79,1960.56C2477.22,1970.36,2482.94,1990.98,2473.56,2006.62C2464.2,2022.25,2443.31,2026.97,2426.89,2017.17Z
M2383.8,1901.9C2366.76,1893.19,2359.71,1872.96,2368.02,1856.76C2376.34,1840.55,2396.89,1834.47,2413.92,1843.19L2499.24,1886.84C2516.26,1895.56,2523.31,1915.76,2515,1931.98C2506.68,1948.19,2486.13,1954.27,2469.11,1945.56Z
M2418.66,1833.14C2401.1,1825.57,2392.72,1805.85,2399.94,1789.14C2407.17,1772.4,2427.28,1764.99,2444.85,1772.56L2532.86,1810.5C2550.43,1818.07,2558.8,1837.78,2551.57,1854.5C2544.34,1871.22,2524.24,1878.65,2506.68,1871.08Z
M2449.04,1761.88C2431,1755.5,2421.33,1736.4,2427.42,1719.23C2433.52,1702.06,2453.08,1693.32,2471.12,1699.7L2561.47,1731.71C2579.5,1738.1,2589.17,1757.19,2583.07,1774.36C2576.98,1791.54,2557.42,1800.28,2539.39,1793.89Z
M2474.74,1688.34C2456.31,1683.17,2445.37,1664.76,2450.31,1647.23C2455.23,1629.7,2474.17,1619.65,2492.6,1624.82L2584.89,1650.7C2603.32,1655.86,2614.26,1674.25,2609.32,1691.79C2604.39,1709.34,2585.46,1719.37,2567.03,1714.2Z
M2495.56,1612.65C2476.84,1608.75,2464.66,1591.13,2468.39,1573.28C2472.11,1555.46,2490.33,1544.16,2509.05,1548.07L2602.89,1567.64C2621.62,1571.54,2633.79,1589.15,2630.06,1606.99C2626.34,1624.82,2608.13,1636.13,2589.4,1632.22Z
M2511.33,1534.99C2492.37,1532.37,2479.04,1515.62,2481.54,1497.57C2484.04,1479.53,2501.43,1467.02,2520.4,1469.63L2615.34,1482.76C2634.3,1485.38,2647.63,1502.13,2645.13,1520.17C2642.63,1538.22,2625.24,1550.74,2606.28,1548.11Z
M2521.85,1455.49C2502.77,1454.18,2488.29,1438.36,2489.56,1420.19C2490.81,1402.02,2507.3,1388.35,2526.4,1389.66L2622.03,1396.25C2641.13,1397.56,2655.57,1413.36,2654.32,1431.53C2653.07,1449.7,2636.58,1463.39,2617.48,1462.08Z"/>
<g stroke="#000000" fill="none">
<path stroke-width="60" d="M1059.06,1372.34C1059.06,1412.55,1026.43,1445.14,986.16,1445.14C945.89,1445.14,913.26,1412.54,913.26,1372.34V1261.76C913.26,1221.55,945.89,1188.96,986.16,1188.96C1026.42,1188.96,1059.06,1221.56,1059.06,1261.76Z
M1736.12,1366.99C1736.12,1407.2,1703.48,1439.79,1663.23,1439.79C1622.97,1439.79,1590.33,1407.19,1590.33,1366.99V1256.4C1590.33,1216.19,1622.97,1183.6,1663.23,1183.6C1703.48,1183.6,1736.12,1216.2,1736.12,1256.4Z
M1517.85,1185.5H1371.27V1303.86V1430H1516.78
M1492.9,1301.42L1372.04,1300.63
M1149.5,1454.55V1189.74H1246.19C1246.19,1189.74,1321.82,1236.46,1242.29,1294.86H1154.96
M1308.22,1442.47L1242.29,1294.86"/>
<path stroke-width="50" d="M1856.08,1313.25C1856.08,1493.7,1618.94,1639.98,1326.43,1639.98C1033.91,1639.98,796.77,1493.7,796.77,1313.25C796.77,1132.81,1033.9,986.54,1326.43,986.54C1618.95,986.53,1856.08,1132.81,1856.08,1313.25Z
M1315.31,978.19L1313.08,662.59
M1092.76,769.27H1544.53
M1017.1,880.4H1617.97"/></g>
<path d="M728.422,2200.02C728.435,2200.02,775.308,2229.94,775.322,2229.95C775.323,2229.95,810.038,2249.9,810.049,2249.91C814.185,2252.68,854.663,2273.14,854.704,2273.16C854.706,2273.16,882.251,2286.27,882.258,2286.27C882.261,2286.27,923.645,2303.93,924.059,2304.11C925.25,2304.55,929.397,2306.13,929.985,2306.37C932.008,2307.01,933.689,2307.27,936.221,2308.46C945.745,2311.5,952.65,2320.42,952.65,2330.95C952.65,2343.98,942.077,2354.55,929.05,2354.55C925.61,2354.55,922.341,2353.81,919.393,2352.49C917.554,2351.94,918.412,2352.29,910.543,2348.59C909.71,2348.26,907.633,2347.42,906.42,2346.84C903.754,2345.74,894.451,2341.79,893.165,2341.15C887.043,2338.87,850.735,2321.87,849.433,2321.13C846.93,2320.15,827.535,2310.63,825.235,2309.24C822.333,2308.06,775.321,2283.38,770.248,2279.85C765.469,2277.67,715.571,2247.73,710.158,2243.36C708.348,2242.41,669.347,2216.2,663.85,2211.22C661.42,2209.75,653.465,2203.63,652.427,2202.66C645.686,2198.49,641.19,2191.03,641.19,2182.53C641.19,2169.48,651.781,2158.89,664.83,2158.89C671.17,2158.89,676.925,2161.39,681.167,2165.46C682.706,2166.44,687.721,2170.47,688.385,2171.09C688.4,2171.1,728.419,2200.02,728.422,2200.02Z
M2360.29,1734.5C2361.49,1731.95,2365.51,1722.9,2365.9,1721.57C2367.21,1718.64,2367.93,1715.4,2367.93,1711.99C2367.93,1698.97,2357.37,1688.41,2344.35,1688.41C2333.86,1688.41,2324.96,1695.27,2321.9,1704.75C2321.08,1706.47,2320.47,1708.3,2320.08,1710.22C2319.83,1710.88,2318.95,1713.2,2318.84,1713.54C2309.23,1738.08,2300.23,1757.23,2299.71,1758.6C2297.21,1763.07,2281.2,1795.22,2277.23,1804.65C2277.23,1804.65,2238.91,1872.68,2238.91,1872.69L2200.4,1930.7C2200.4,1930.7,2182.37,1954.56,2181.54,1955.88C2180.49,1956.98,2179.55,1958.17,2178.73,1959.46C2174.63,1963.71,2172.11,1969.49,2172.11,1975.85C2172.11,1988.89,2182.7,1999.48,2195.74,1999.48C2204.2,1999.48,2211.62,1995.03,2215.8,1988.34C2216.92,1987.15,2217.93,1985.83,2218.78,1984.43C2222.61,1980.28,2242.99,1951.17,2243.73,1949.84C2247.77,1945.01,2275.32,1902.07,2278.05,1896.39C2283.23,1889.32,2317.43,1827.34,2320.93,1818.91C2321.75,1817.57,2340.82,1779.05,2343.4,1772.6C2345.36,1768.94,2358.79,1738.39,2360.29,1734.5Z
M2343.82,908.33C2343.82,921.368,2333.24,931.95,2320.2,931.95C2309.46,931.95,2300.38,924.773,2297.51,914.958C2296.67,913.344,2294.35,907.353,2294.09,906.48C2293.45,905.291,2289.64,896.567,2288.81,893.997C2288.8,893.975,2258.26,830.523,2258.26,830.521C2258.24,830.494,2202.99,737.773,2202.99,737.764C2202.98,737.757,2171.75,693.287,2171.74,693.273C2171.21,692.63,2157.02,674.177,2156.53,673.53C2155.72,672.585,2152.97,669.199,2152.59,668.704C2151.8,667.672,2150.14,666.476,2148.28,663.835C2144.42,659.626,2142.06,654.015,2142.06,647.86C2142.06,634.827,2152.64,624.25,2165.67,624.25C2173.52,624.25,2180.47,628.085,2184.77,633.981C2186.77,636.09,2186.02,635.481,2190.55,641.833C2191.5,643.029,2194.7,647.3,2195.14,647.924C2197.35,650.721,2204.77,660.786,2205.75,662.274C2209.83,667.32,2239.66,709.98,2242.79,715.616C2245.19,718.723,2258.33,739.582,2258.8,740.493C2263.19,746.318,2297.73,805.316,2300.92,812.976C2302.32,815.079,2321.97,853.347,2323.63,858.065C2325.23,860.733,2332.49,876.564,2333.47,879.591C2334.41,881.236,2339.86,893.502,2340.97,897.13C2342.77,900.464,2343.82,904.278,2343.82,908.33Z
M1492.04,275.2C1492.04,288.249,1481.45,298.84,1468.4,298.84C1466.42,298.84,1464.49,298.595,1462.65,298.134C1461.07,298.061,1459.54,297.833,1458.06,297.466C1458.06,297.466,1433.87,294.753,1431.24,294.206C1430.01,294.206,1391.35,290.466,1381.88,290.466C1381.88,290.466,1344.73,289.181,1344.72,289.18C1342.5,289.337,1340.26,289.27,1322.41,289.27C1299.32,289.27,1270.47,290.905,1268.67,290.905C1268.66,290.907,1228.07,293.95,1228.07,293.95C1227.18,294.087,1226.28,294.174,1225.36,294.206C1224.65,294.32,1209.94,296.069,1205.3,296.371C1204.57,296.494,1203.83,296.582,1203.08,296.634C1201.73,296.866,1192.2,298.124,1189.47,298.412C1188.82,298.533,1188.16,298.627,1187.49,298.692C1186.54,298.855,1179.85,299.892,1177.93,300.16C1175.03,300.715,1169.95,302.2,1165.28,302.2C1152.25,302.2,1141.68,291.647,1141.68,278.62C1141.68,266.809,1150.37,257.014,1161.7,255.261C1163.84,254.93,1171.38,254.151,1172.46,254.049C1172.74,254.006,1174.75,253.749,1175.32,253.699C1175.75,253.635,1176.18,253.582,1176.61,253.541C1179.13,253.141,1188.01,252.136,1189.28,252.052C1193.32,251.422,1225.87,248.14,1229.93,248.073C1235.32,247.284,1279.06,244.638,1284.55,244.638C1287.88,244.231,1318.34,243.47,1318.36,243.47C1325.2,243.47,1332.01,243.47,1338.86,243.47C1343.08,243.47,1347.28,243.47,1351.51,243.47C1356.26,243.47,1394.09,244.434,1398.7,245.13C1404.89,245.13,1453.76,249.055,1459.65,250.368C1461.74,250.412,1467.98,251.457,1470.07,251.609C1482.35,252.472,1492.04,262.715,1492.04,275.2Z
M481.04,644.17C494.078,644.17,504.66,654.752,504.66,667.79C504.66,674.167,502.128,679.957,498.016,684.208C496.721,686.226,488.658,696.701,487.031,698.475C487.018,698.496,444.552,760.213,444.549,760.216C444.542,760.231,417.314,806.027,417.311,806.031C417.306,806.043,391.753,854.381,391.749,854.388C391.748,854.391,362.277,919.123,362.27,919.139C361.953,920.015,359.549,926.083,358.835,927.805C356.549,934.491,355.383,937.846,354.883,938.899C351.833,948.393,342.936,955.27,332.43,955.27C319.403,955.27,308.83,944.697,308.83,931.67C308.83,928.258,309.555,925.014,310.86,922.085C311.82,918.828,311.813,919.69,314.312,914.254C321.502,896.09,341.313,853.857,342.321,852.091C345.012,845.36,371.575,793.464,375.583,787.477C376.887,784.521,404.132,737.094,408.023,732.069C410.34,727.481,441.695,680.16,446.567,674.624C447.528,672.97,455.451,661.972,458.056,659.166C464.457,648.753,471.846,644.17,481.04,644.17Z
M499.68,1989.57C499.68,2002.6,489.103,2013.18,476.07,2013.18C468.223,2013.18,461.267,2009.35,456.973,2003.45C455.546,2001.95,454.315,2000.26,453.319,1998.42L452.76,1997.69C452.472,1997.33,452.194,1996.97,451.927,1996.59C444.922,1987.8,412.149,1942.37,408.415,1935.97C402.309,1928.19,363.29,1866.16,359.875,1858.66C355.834,1852.86,328.734,1802.7,326.247,1796.13C323.012,1790.97,302.504,1746.09,300.742,1740.27C298.948,1736.94,297.93,1733.14,297.93,1729.09C297.93,1716.05,308.512,1705.47,321.55,1705.47C332.309,1705.47,341.395,1712.67,344.243,1722.52C344.947,1723.87,345.525,1725.29,345.96,1726.78C346.663,1728.11,347.242,1729.52,347.681,1730.99C347.685,1731,371.668,1783.79,371.668,1783.79C371.668,1783.79,403.561,1843.09,403.572,1843.11C403.584,1843.13,449.56,1915.57,449.566,1915.58C452.291,1919.02,448.791,1916.18,487.63,1966.92C488.062,1967.42,489.535,1969.18,489.739,1969.44C491.155,1970.69,492.421,1972.1,493.505,1973.66C497.34,1977.85,499.68,1983.44,499.68,1989.57Z
M1424.27,2399.66C1426.31,2399.64,1469.91,2395.82,1476.55,2394.65C1479.59,2394.36,1490.23,2393.11,1491.73,2392.82C1496.12,2392.51,1498.77,2392.26,1500.47,2391.86C1501.81,2391.72,1503.16,2391.47,1504.5,2391.09C1514.93,2388.15,1521.76,2378.66,1521.69,2368.37C1521.76,2366.27,1521.48,2364.17,1520.88,2362.05C1517.94,2351.62,1508.51,2344.82,1498.19,2344.82C1496.54,2344.82,1494.86,2345,1493.18,2345.36C1491.74,2345.48,1490.28,2345.73,1488.83,2346.13C1475.14,2349.83,1414.33,2354.81,1414.31,2354.81C1405.34,2354.81,1396.36,2357.69,1324.57,2357.69C1306.4,2357.69,1304.12,2357.26,1301.86,2357.39C1301.83,2357.39,1205.23,2349.49,1205.22,2349.49C1204.22,2349.25,1197.07,2348.16,1195.03,2348.16C1181.99,2348.16,1171.4,2358.75,1171.4,2371.79C1171.4,2384.57,1181.58,2395,1194.27,2395.41C1196.14,2395.85,1202.88,2396.59,1203.84,2396.61C1211.5,2398.3,1270.29,2402.72,1281.56,2402.72C1290.99,2402.72,1290.99,2403.53,1328.73,2403.53C1370.9,2403.53,1422.5,2399.91,1424.27,2399.66Z
M292.4,1479.71C292.4,1492.73,281.852,1503.3,268.83,1503.3C256.64,1503.3,246.582,1494.04,245.347,1482.17C244.924,1480.4,244.7,1478.56,244.7,1476.66C244.7,1476.5,244.7,1476.35,244.7,1476.19C244.612,1475.63,244.549,1475.07,244.503,1474.5C240.255,1442.66,237.086,1402.58,237.08,1399.49C235.866,1391.02,233.553,1334.19,233.553,1311.95C233.553,1309.57,233.61,1310.76,233.61,1300.06C233.61,1296.01,233.817,1290.59,233.817,1285.18C233.817,1253.85,239.316,1188.97,241.157,1180.98C241.197,1179.39,241.398,1177.79,241.767,1176.21C241.897,1172.11,243.083,1168,245.45,1164.29C249.957,1157.23,257.621,1153.38,265.426,1153.38C269.779,1153.38,274.182,1154.57,278.12,1157.08C285.183,1161.58,289.042,1169.21,289.042,1177C289.042,1178.91,288.811,1180.82,288.339,1182.71C288.338,1182.74,279.794,1283.71,279.793,1283.72C279.844,1284.55,279.588,1301.46,279.339,1304.27C279.34,1304.28,282.12,1392.96,282.12,1392.97C282.297,1394.21,282.593,1398.6,282.599,1399.23C283.481,1405.15,281.428,1399.39,290.385,1467.27C290.677,1468.85,290.676,1468.85,290.735,1469.25C291.287,1470.92,291.658,1472.69,291.823,1474.5C292.201,1476.18,292.4,1477.92,292.4,1479.71Z
M644.031,475.89C646.114,473.927,645.528,474.687,651.755,470.21C653.778,468.584,661.078,463.16,662.15,462.43C667.147,458.407,683.645,446.731,684.438,446.229C687.16,444.022,703.061,432.914,706.101,431.109C708.196,429.449,745.894,404.403,750.59,401.987C753.989,399.45,776.932,385.817,777.945,385.335C779.986,383.871,787.697,379.497,788.837,378.974C793.062,376.009,821.759,360.516,823.056,359.973C825.755,358.173,851.688,344.765,855.631,343.297C856.531,342.741,881.227,330.754,885.463,329.349C889.605,326.993,905.19,320.535,907.468,319.85C910.786,318.074,914.576,317.08,918.6,317.08C931.649,317.08,942.24,327.671,942.24,340.72C942.24,351.51,934.999,360.619,925.115,363.45C923.783,364.141,922.377,364.709,920.913,365.139C919.532,365.867,918.071,366.463,916.546,366.908C913.791,368.346,896.601,375.521,895.886,375.754C895.879,375.758,856.018,394.695,856.014,394.697C854.804,395.462,853.518,396.118,852.17,396.65C851.46,397.105,822.189,412.592,822.186,412.593C820.824,413.52,778.469,438.581,774.61,440.563C774.019,441.004,758.869,450.811,756.339,452.182C756.338,452.183,724.527,473.655,724.518,473.661C724.511,473.667,694.444,495.614,694.439,495.617C693.372,496.508,685.699,502.509,683.469,504.171C675.643,510.838,674.714,511.758,673.669,512.485C669.475,516.296,663.905,518.62,657.8,518.62C644.784,518.62,634.22,508.056,634.22,495.04C634.22,487.162,638.09,480.173,644.031,475.89Z
M1701.64,351.2C1696.91,346.584,1694.53,340.453,1694.53,334.325C1694.53,328.387,1696.76,322.517,1701.25,317.93C1705.88,313.197,1712.01,310.798,1718.15,310.798C1721.46,310.798,1724.78,311.489,1727.86,312.874C1728.92,313.19,1736.09,316.38,1738.12,317.328C1741.33,318.62,1752.47,323.403,1754.02,324.157C1757.57,325.521,1769.76,331.014,1771.44,331.9C1774.13,332.946,1795.12,342.696,1797.64,344.096C1798.63,344.484,1821.71,355.61,1825.18,357.7C1828.27,358.977,1878.58,385.721,1884.05,389.497C1886.27,390.51,1934.04,419.02,1940.86,424.509C1946.48,427.482,1978.28,450.192,1979.41,451.212C1981.87,452.657,1989.88,458.792,1990.93,459.761C1992.33,460.616,1993.64,461.613,1994.82,462.73C2001.56,466.925,2005.99,474.394,2005.99,482.806V483.82C2005.43,496.498,1994.98,506.37,1982.38,506.37C1982.03,506.37,1981.68,506.37,1981.33,506.37C1977.46,506.198,1971.16,505.342,1962.38,496.994C1961.23,496.275,1953.57,490.563,1951.57,488.733C1950.82,488.272,1930.47,473.515,1929.78,472.919C1929.78,472.918,1840.55,417.296,1840.54,417.288C1840.53,417.283,1798.53,395.144,1798.52,395.141C1797.06,394.543,1770.04,381.405,1770.04,381.404C1769.32,381.124,1741.69,368.787,1741.69,368.786C1741.69,368.784,1719.52,359.826,1719.51,359.823C1711.63,357.132,1712.43,357.556,1710.77,356.762C1707.45,355.661,1704.32,353.801,1701.64,351.2Z
M2418.09,1161.48C2418.52,1163.25,2418.74,1165.1,2418.74,1167V1167.62C2418.83,1168.28,2419.1,1170.6,2419.13,1170.93C2419.77,1174.96,2423.48,1207.37,2423.61,1211.42C2424.97,1219.77,2429.49,1286.17,2429.49,1308.87C2429.49,1312.08,2429.71,1318.51,2429.71,1324.93C2429.71,1359,2429.49,1355.22,2429.49,1362.79C2429.49,1386.1,2424.97,1445.85,2423.42,1453.09C2423.41,1454.05,2422.71,1460.79,2422.28,1462.65C2422.24,1464.27,2422,1465.91,2421.62,1467.52C2421.47,1471.59,2420.32,1475.69,2417.96,1479.38C2413.45,1486.44,2405.82,1490.29,2398.02,1490.29C2393.67,1490.29,2389.26,1489.09,2385.31,1486.58C2378.24,1482.07,2374.39,1474.46,2374.39,1466.67C2374.39,1464.78,2374.62,1462.87,2375.08,1461C2375.15,1459.48,2375.36,1457.96,2375.73,1456.46C2375.73,1456.45,2383.61,1395.64,2383.61,1358.47C2383.61,1358.47,2383.85,1358.47,2383.85,1308.87C2383.85,1305.33,2383.77,1306.51,2383.77,1304.94C2383.77,1270.25,2377.98,1213.54,2377.98,1213.51C2377.98,1213.49,2378.09,1213.48,2373.52,1179.23C2373.43,1178.75,2373.35,1178.27,2373.28,1177.79C2373.22,1177.48,2373.17,1177.16,2372.74,1174.65C2372.14,1172.78,2371.74,1170.89,2371.58,1168.93C2371.23,1167.32,2371.05,1165.65,2371.05,1163.94C2371.05,1150.92,2381.58,1140.36,2394.6,1140.36C2406.79,1140.36,2416.86,1149.62,2418.09,1161.48Z
M2015.47,2135.1C2020.2,2139.72,2022.57,2145.83,2022.57,2151.95C2022.57,2157.9,2020.33,2163.85,2015.85,2168.44C2014.88,2169.43,2013.84,2170.32,2012.74,2171.11C2011.25,2172.52,2009.61,2173.69,2007.89,2174.64L2007.86,2174.66C2006.39,2175.85,2001.06,2179.81,2000.29,2180.36C1997.04,2182.98,1978.29,2196.7,1974.69,2199.08C1972.08,2201.23,1924.86,2233.76,1918.96,2236.9C1910.42,2243.42,1842.64,2283.34,1833.6,2287.07C1825.77,2292.18,1766.09,2320.91,1758.21,2323.36C1757.36,2323.83,1751.1,2326.58,1749.25,2327.14C1745.94,2328.9,1742.17,2329.9,1738.16,2329.9C1725.11,2329.9,1714.52,2319.31,1714.52,2306.26C1714.52,2295.45,1721.78,2286.33,1731.69,2283.52C1732.5,2283.1,1738.39,2280.6,1740.13,2280.09C1740.14,2280.08,1812.22,2246.4,1812.22,2246.4C1812.23,2246.39,1891.37,2200.62,1891.37,2200.62C1891.38,2200.61,1949.74,2160.79,1949.75,2160.79C1951.81,2159.13,1966.58,2147.92,1970.84,2144.77C1973.51,2142.54,1976.98,2139.91,1977.62,2139.32C1979.35,2137.73,1977.88,2139.17,1979.75,2137.3C1980.84,2136.2,1982.01,2135.23,1983.24,2134.39C1987.7,2130.4,1993.32,2128.39,1998.96,2128.39C2004.92,2128.39,2010.88,2130.62,2015.47,2135.1Z"/>
<path d="M2367.83,1028.68C2360.81,1039.67,2346.19,1042.89,2335.17,1035.88C2324.16,1028.86,2320.94,1014.27,2327.96,1003.28C2334.99,992.29,2349.59,989.06,2360.61,996.08C2371.62,1003.1,2374.85,1017.68,2367.83,1028.68Z
M434.48,1337.93C427.45,1348.93,412.83,1352.16,401.82,1345.14C390.81,1338.12,387.58,1323.52,394.61,1312.53C401.63,1301.54,416.25,1298.31,427.25,1305.33C438.28,1312.35,441.49,1326.94,434.48,1337.93Z
M2392.3,1586.54C2385.29,1597.55,2370.67,1600.77,2359.66,1593.75C2348.65,1586.75,2345.42,1572.15,2352.44,1561.16C2359.46,1550.15,2374.07,1546.93,2385.08,1553.96C2396.1,1560.96,2399.34,1575.56,2392.3,1586.54Z
M2149.74,2079.96C2142.72,2090.96,2128.1,2094.19,2117.09,2087.17C2106.08,2080.17,2102.85,2065.57,2109.87,2054.57C2116.9,2043.56,2131.5,2040.34,2142.52,2047.37C2153.54,2054.37,2156.76,2068.98,2149.74,2079.96Z
M547.44,1799.91C540.42,1810.91,525.8,1814.14,514.78,1807.13C503.78,1800.12,500.55,1785.52,507.57,1774.52C514.6,1763.52,529.2,1760.3,540.22,1767.32C551.24,1774.33,554.46,1788.93,547.44,1799.91Z"/>
<circle cx="520.07" cy="1533.65" r="23.63"/>
<circle cx="729.42" cy="743.21" r="23.63"/>
<circle cx="528.6" cy="1112.42" r="23.63"/>
<circle cx="1096.8" cy="539.18" r="23.63"/>
<circle cx="1514.43" cy="540.01" r="23.63"/>
<circle cx="1891.09" cy="736.55" r="23.63"/>
<circle cx="1911.11" cy="1870.06" r="23.63"/>
<circle cx="2108.64" cy="1508.05" r="23.63"/>
<circle cx="1116.11" cy="2105.92" r="23.63"/>
<circle cx="731.65" cy="1896.74" r="23.63"/>
<circle cx="1539.66" cy="2090.55" r="23.63"/>
<circle cx="2104.92" cy="1094.82" r="23.63"/>
<circle cx="1765.93" cy="534.55" r="23.63"/>
<circle cx="757.81" cy="1001.29" r="23.63"/>
<circle cx="1889.46" cy="989.31" r="23.63"/>
<circle cx="681.06" cy="1322.7" r="23.63"/>
<circle cx="754.5" cy="1642.75" r="23.63"/>
<circle cx="999.3" cy="1876.12" r="23.63"/>
<circle cx="1328.65" cy="1971.69" r="23.63"/>
<circle cx="1659.1" cy="1868.1" r="23.63"/>
<circle cx="1890.55" cy="1630.28" r="23.63"/>
<circle cx="1976.25" cy="1307.14" r="23.63"/>
<circle cx="2236.63" cy="1300.47" r="23.63"/>
<circle cx="289.39" cy="1047.09" r="23.63"/>
<circle cx="551.99" cy="564.79" r="23.63"/>
<circle cx="1037.13" cy="302.53" r="23.63"/>
<circle cx="1581.22" cy="294.51" r="23.63"/>
<circle cx="2066.36" cy="563.44" r="23.63"/>
<circle cx="2128.67" cy="1756.97" r="23.63"/>
<circle cx="1793.77" cy="2091.71" r="23.63"/>
<circle cx="1632.39" cy="2343.74" r="23.63"/>
<circle cx="1046.04" cy="2358.42" r="23.63"/>
<circle cx="1336.43" cy="2214.83" r="23.63"/>
<circle cx="869.08" cy="2108.14" r="23.63"/>
<circle cx="553.08" cy="2092.59" r="23.63"/>
<circle cx="533.05" cy="881.27" r="23.63"/>
<circle cx="849.05" cy="543.44" r="23.63"/>
<circle cx="1299.73" cy="395.88" r="23.63"/>
<circle cx="278.27" cy="1600.52" r="23.63"/>
</svg>